<svg xmlns="http://www.w3.org/2000/svg" viewBox="0 0 209.06 172.44">
  <rect width="209.06" height="172.44" rx="0" fill="#2A0F25"/>
  <path fill="#C6A56A" d="M101.46,24.51c.11-1.65.14-3.31.14-4.99s-.08-3.34-.19-4.99H15.85v9.98h75.59c-1.27,20.65-10.34,39.21-24.28,52.8,2.68,2,5.26,4.14,7.73,6.43,15.38-15.34,25.31-36.15,26.56-59.23Z"/>
  <path fill="#C6A56A" d="M15.85,100.1v10.01c16.79-.91,32.37-6.43,45.52-15.28-2.68-2.33-5.52-4.46-8.51-6.41-10.91,6.68-23.52,10.85-37.02,11.68Z"/>
  <path fill="#C6A56A" d="M101.6,152.92c0,1.68-.08,3.34-.19,4.99H15.85v-9.98h75.59c-2.49-40.56-35.04-73.11-75.59-75.59v-10.01c46.07,2.51,83.1,39.54,85.61,85.61h0c.11,1.65.14,3.31.14,4.99Z"/>
  <path fill="#C6A56A" d="M107.6,24.51c-.11-1.65-.14-3.31-.14-4.99s.08-3.34.19-4.99h85.56v9.98h-75.59c1.27,20.65,10.34,39.21,24.28,52.8-2.68,2-5.26,4.14-7.73,6.43-15.38-15.34-25.31-36.15-26.56-59.23Z"/>
  <path fill="#C6A56A" d="M193.21,100.1v10.01c-16.79-.91-32.37-6.43-45.52-15.28,2.68-2.33,5.52-4.46,8.51-6.41,10.91,6.68,23.52,10.85,37.02,11.68Z"/>
  <path fill="#C6A56A" d="M107.46,152.92c0,1.68.08,3.34.19,4.99h85.56v-9.98h-75.59c2.49-40.56,35.04-73.11,75.59-75.59v-10.01c-46.07,2.51-83.1,39.54-85.61,85.61h0c-.11,1.65-.14,3.31-.14,4.99Z"/>
</svg>
